{
   "accessors" : [
      {
         "bufferView" : 2,
         "byteOffset" : 0,
         "componentType" : 5126,
         "count" : 16274,
         "max" : [ 1, 1, 1, 1 ],
         "min" : [ 0.006584956776350737, 0.006584956776350737, 0, 1 ],
         "name" : "accessor_color_m0-PolyPaper21_-76220",
         "type" : "VEC4"
      },
      {
         "bufferView" : 2,
         "byteOffset" : 260384,
         "componentType" : 5126,
         "count" : 336,
         "max" : [ 1, 1, 1, 1 ],
         "min" : [ 1, 1, 1, 1 ],
         "name" : "accessor_color_m1-PolyGlass24_-76226",
         "type" : "VEC4"
      },
      {
         "bufferView" : 0,
         "byteOffset" : 0,
         "componentType" : 5123,
         "count" : 23712,
         "max" : [ 16273 ],
         "min" : [ 0 ],
         "name" : "accessor_indices_0_m0-PolyPaper21_-76220",
         "type" : "SCALAR"
      },
      {
         "bufferView" : 0,
         "byteOffset" : 47424,
         "componentType" : 5123,
         "count" : 498,
         "max" : [ 335 ],
         "min" : [ 0 ],
         "name" : "accessor_indices_0_m1-PolyGlass24_-76226",
         "type" : "SCALAR"
      },
      {
         "bufferView" : 1,
         "byteOffset" : 195288,
         "componentType" : 5126,
         "count" : 16274,
         "max" : [ 0.9977161, 1, 0.9996052 ],
         "min" : [ -0.9993303, -1, -0.9996934 ],
         "name" : "accessor_normal_m0-PolyPaper21_-76220",
         "type" : "VEC3"
      },
      {
         "bufferView" : 1,
         "byteOffset" : 394608,
         "componentType" : 5126,
         "count" : 336,
         "max" : [ 0.9659261, 0.9844242, 0.9659261 ],
         "min" : [ -0.9659261, -1, -0.9659262 ],
         "name" : "accessor_normal_m1-PolyGlass24_-76226",
         "type" : "VEC3"
      },
      {
         "bufferView" : 1,
         "byteOffset" : 0,
         "componentType" : 5126,
         "count" : 16274,
         "max" : [ 0.9108675000000001, 2.647405, 2.525194 ],
         "min" : [ -2.810417, -2.744007, -2.420018 ],
         "name" : "accessor_position_m0-PolyPaper21_-76220",
         "type" : "VEC3"
      },
      {
         "bufferView" : 1,
         "byteOffset" : 390576,
         "componentType" : 5126,
         "count" : 336,
         "max" : [ 0.9435657, 2.920697, -0.3750837 ],
         "min" : [ -1.164595, 1.160698, -2.483244 ],
         "name" : "accessor_position_m1-PolyGlass24_-76226",
         "type" : "VEC3"
      }
   ],
   "asset" : {
      "copyright" : "Unknown",
      "extras" : {
         "GOOGLE_processor_version" : 294144208
      },
      "generator" : "glTF 1-to-2 Upgrader for Google Blocks",
      "version" : "2.0"
   },
   "bufferViews" : [
      {
         "buffer" : 0,
         "byteLength" : 48420,
         "byteOffset" : 0,
         "name" : "ushortBufferView",
         "target" : 34963
      },
      {
         "buffer" : 0,
         "byteLength" : 398640,
         "byteOffset" : 48420,
         "byteStride" : 12,
         "name" : "vec3BufferView",
         "target" : 34962
      },
      {
         "buffer" : 0,
         "byteLength" : 265760,
         "byteOffset" : 447060,
         "byteStride" : 16,
         "name" : "vec4BufferView",
         "target" : 34962
      }
   ],
   "buffers" : [
      {
         "byteLength" : 712820,
         "name" : "model",
         "uri" : "model.bin"
      }
   ],
   "cameras" : [
      {
         "perspective" : {
            "yfov" : 0.7853981633974483,
            "znear" : 0.1000000014901161
         },
         "type" : "perspective"
      }
   ],
   "extensions" : {
      "KHR_lights_punctual" : {
         "lights" : [
            {
               "color" : [ 1, 0.9333333333333333, 0.8666666666666667 ],
               "intensity" : 0.25,
               "name" : "headLight",
               "type" : "directional"
            },
            {
               "color" : [ 1, 0.9333333333333333, 0.8666666666666667 ],
               "intensity" : 0.324999988079071,
               "name" : "keyLight",
               "type" : "directional"
            }
         ]
      }
   },
   "extensionsUsed" : [ "GOOGLE_backgrounds", "GOOGLE_camera_settings", "KHR_lights_punctual" ],
   "extras" : {
      "GOOGLE_initial_camera_motion" : {
         "motionPath" : "FULL_ROTATION"
      },
      "GOOGLE_lighting_rig" : {
         "disableShadows" : false
      }
   },
   "materials" : [
      {
         "alphaMode" : "OPAQUE",
         "doubleSided" : false,
         "name" : "BlocksPaper",
         "pbrMetallicRoughness" : {
            "baseColorFactor" : [ 1, 1, 1, 1 ],
            "metallicFactor" : 0,
            "roughnessFactor" : 0.6
         }
      },
      {
         "alphaMode" : "BLEND",
         "doubleSided" : false,
         "name" : "BlocksGlass",
         "pbrMetallicRoughness" : {
            "baseColorFactor" : [ 0.2, 0.2, 1, 0.3 ],
            "metallicFactor" : 1,
            "roughnessFactor" : 0.4
         }
      },
      {
         "alphaMode" : "OPAQUE",
         "doubleSided" : true,
         "name" : "BlocksGem",
         "pbrMetallicRoughness" : {
            "baseColorFactor" : [ 1, 0.4, 1, 1 ],
            "metallicFactor" : 0,
            "roughnessFactor" : 0.1
         }
      }
   ],
   "meshes" : [
      {
         "name" : "mesh_m0-PolyPaper21_-76220",
         "primitives" : [
            {
               "attributes" : {
                  "COLOR_0" : 0,
                  "NORMAL" : 4,
                  "POSITION" : 6
               },
               "indices" : 2,
               "material" : 0,
               "mode" : 4
            }
         ]
      },
      {
         "name" : "mesh_m1-PolyGlass24_-76226",
         "primitives" : [
            {
               "attributes" : {
                  "COLOR_0" : 1,
                  "NORMAL" : 5,
                  "POSITION" : 7
               },
               "indices" : 3,
               "material" : 1,
               "mode" : 4
            }
         ]
      }
   ],
   "nodes" : [
      {
         "mesh" : 0,
         "name" : "node_MeshObject1366450176-PolyPaper21"
      },
      {
         "mesh" : 1,
         "name" : "node_MeshObject1938529280-PolyGlass24"
      },
      {
         "children" : [ 3 ]
      },
      {
         "children" : [ 4 ],
         "extras" : {
            "isTransformNode" : 1
         },
         "translation" : [ -0.3759810180019043, 0.6996685063072645, -0.6965087002933474 ]
      },
      {
         "children" : [ 0, 1 ],
         "translation" : [ 0.3759810180019043, -0.6996685063072645, 0.6965087002933474 ]
      },
      {
         "camera" : 0,
         "children" : [ 6 ],
         "rotation" : [
            1.06180026756983e-05,
            0.9816341934772005,
            5.463560802835728e-05,
            -0.1907729202443955
         ],
         "translation" : [ -2.311562280906627, 1.037287806562028, -6.793788843411557 ]
      },
      {
         "extensions" : {
            "KHR_lights_punctual" : {
               "light" : 0
            }
         },
         "extras" : {
            "isHeadLight" : 1
         },
         "name" : "headLightNode",
         "translation" : [ -4.812262130796051, 2.406131065398025, 2.406131065398025 ]
      },
      {
         "extensions" : {
            "KHR_lights_punctual" : {
               "light" : 1
            }
         },
         "extras" : {
            "isKeyLight" : 1
         },
         "name" : "keyLightNode",
         "rotation" : [ -0.7505326882858236, -0.3752663441429118, 0, 0.5439447166468927 ],
         "scale" : [ 0, 0, 4.860384752104012 ],
         "translation" : [ -5.412410699515166, 9.639540259704697, -5.218342912033139 ]
      }
   ],
   "scene" : 0,
   "scenes" : [
      {
         "extensions" : {
            "GOOGLE_backgrounds" : {
               "color" : [ 0.1294117647058824, 0.1294117647058824, 0.1294117647058824 ]
            },
            "GOOGLE_camera_settings" : {
               "pivot" : [ 0, 0, 0 ]
            }
         },
         "extras" : {
            "GOOGLE_camera_index" : {
               "cameraIndex" : 0,
               "nodeIndex" : 5
            },
            "GOOGLE_geometry_data" : {
               "stats" : {
                  "centroid" : [ -0.5520259474111541, -0.08122924450332647, -0.3579581599291271 ],
                  "radius" : 4.812262130796051,
                  "stdev" : 1.909209263763231
               },
               "visualCenterPoint" : [ -0.3759810180019043, 0.6996685063072645, -0.6965087002933474 ]
            },
            "GOOGLE_hemi_light" : {
               "groundColor" : [ 0.1294117647058824, 0.1294117647058824, 0.1294117647058824 ]
            }
         },
         "name" : "defaultScene",
         "nodes" : [ 2, 5, 7 ]
      }
   ]
}
